<svg xmlns="http://www.w3.org/2000/svg" viewBox="0 0 800 1000" width="800" height="1000" preserveAspectRatio="xMidYMid slice"><defs><linearGradient id="bg" x1="0" y1="0" x2="0" y2="1"><stop offset="0" stop-color="#e7cdb2"/><stop offset=".72" stop-color="#eed9bf"/></linearGradient>
<radialGradient id="sun" cx="560" cy="360" r="300" gradientUnits="userSpaceOnUse"><stop offset="0" stop-color="#fbeedb" stop-opacity=".95"/><stop offset="1" stop-color="#fbeedb" stop-opacity="0"/></radialGradient><pattern id="tex" width="12" height="10" patternUnits="userSpaceOnUse"><path d="M0 1 L6 8 L12 1" fill="none" stroke="#ffffff" stroke-width="1.6"/></pattern>
<linearGradient id="form" x1="0" y1="0" x2="1" y2="1"><stop offset="0" stop-color="#fff" stop-opacity=".12"/><stop offset=".5" stop-color="#fff" stop-opacity="0"/><stop offset="1" stop-color="#000" stop-opacity=".18"/></linearGradient>
<clipPath id="cut"><path d="M284 224 C256 242 244 272 240 312 L222 624 L272 630 L292 352Z"/><path d="M516 224 C544 242 556 272 560 312 L578 624 L528 630 L508 352Z"/><path d="M330 198 C306 206 292 214 284 224 C280 272 282 312 284 352 L282 644 L518 644 L516 352 C518 312 520 272 516 224 C508 214 494 206 470 198 C455 224 430 236 400 236 C370 236 345 224 330 198Z"/></clipPath>
<filter id="drop" x="-20%" y="-20%" width="140%" height="140%"><feGaussianBlur stdDeviation="14"/></filter>
<filter id="grain" x="0" y="0" width="100%" height="100%"><feTurbulence type="fractalNoise" baseFrequency=".9" numOctaves="2" stitchTiles="stitch"/><feColorMatrix values="0 0 0 0 .14  0 0 0 0 .11  0 0 0 0 .09  0 0 0 .07 0"/></filter></defs>
<rect width="800" height="1000" fill="url(#bg)"/><rect width="800" height="1000" fill="url(#sun)"/><path d="M0 760 C140 730 260 744 380 758 C520 774 640 736 800 748 V1000 H0Z" fill="#dcb08e" opacity=".8"/><path d="M0 850 C160 820 300 840 440 836 C580 832 700 812 800 820 V1000 H0Z" fill="#c98f69" opacity=".75"/><path d="M0 930 C200 910 420 930 800 912 V1000 H0Z" fill="#b27552" opacity=".7"/>
<g transform="translate(16 22)" opacity=".2" filter="url(#drop)"><path d="M284 224 C256 242 244 272 240 312 L222 624 L272 630 L292 352Z" fill="#231d18"/><path d="M516 224 C544 242 556 272 560 312 L578 624 L528 630 L508 352Z" fill="#231d18"/><path d="M330 198 C306 206 292 214 284 224 C280 272 282 312 284 352 L282 644 L518 644 L516 352 C518 312 520 272 516 224 C508 214 494 206 470 198 C455 224 430 236 400 236 C370 236 345 224 330 198Z" fill="#231d18"/></g>
<path d="M284 224 C256 242 244 272 240 312 L222 624 L272 630 L292 352Z" fill="#7e3d23"/><path d="M516 224 C544 242 556 272 560 312 L578 624 L528 630 L508 352Z" fill="#7e3d23"/><path d="M330 198 C306 206 292 214 284 224 C280 272 282 312 284 352 L282 644 L518 644 L516 352 C518 312 520 272 516 224 C508 214 494 206 470 198 C455 224 430 236 400 236 C370 236 345 224 330 198Z" fill="#9c4e2e"/>
<g clip-path="url(#cut)"><rect width="800" height="1000" fill="url(#tex)" opacity="0.06"/></g>
<path d="M330 198 C345 224 370 236 400 236 C430 236 455 224 470 198 L484 205 C466 240 436 254 400 254 C364 254 334 240 316 205Z" fill="#7e3d23"/>
<path d="M282 644 L518 644 L516 694 L284 694Z" fill="#7e3d23"/><path d="M222 624 L272 630 L270 668 L220 662Z" fill="#7e3d23"/><path d="M578 624 L528 630 L530 668 L580 662Z" fill="#7e3d23"/>
<g stroke="#5e2a16" stroke-width="2" opacity=".5"><path d="M288 648 v42"/><path d="M293.7 648 v42"/><path d="M299.4 648 v42"/><path d="M305.1 648 v42"/><path d="M310.8 648 v42"/><path d="M316.5 648 v42"/><path d="M322.2 648 v42"/><path d="M327.9 648 v42"/><path d="M333.6 648 v42"/><path d="M339.3 648 v42"/><path d="M345 648 v42"/><path d="M350.7 648 v42"/><path d="M356.4 648 v42"/><path d="M362.1 648 v42"/><path d="M367.8 648 v42"/><path d="M373.5 648 v42"/><path d="M379.2 648 v42"/><path d="M384.9 648 v42"/><path d="M390.6 648 v42"/><path d="M396.3 648 v42"/><path d="M402 648 v42"/><path d="M407.7 648 v42"/><path d="M413.4 648 v42"/><path d="M419.1 648 v42"/><path d="M424.8 648 v42"/><path d="M430.5 648 v42"/><path d="M436.20000000000005 648 v42"/><path d="M441.9 648 v42"/><path d="M447.6 648 v42"/><path d="M453.3 648 v42"/><path d="M459 648 v42"/><path d="M464.70000000000005 648 v42"/><path d="M470.4 648 v42"/><path d="M476.1 648 v42"/><path d="M481.8 648 v42"/><path d="M487.5 648 v42"/><path d="M493.20000000000005 648 v42"/><path d="M498.9 648 v42"/><path d="M504.6 648 v42"/><path d="M510.3 648 v42"/></g>
<g clip-path="url(#cut)"><rect width="800" height="1000" fill="url(#form)"/></g>
<path d="M400 176 V150 C400 128 424 122 432 138" fill="none" stroke="#3b3029" stroke-width="4" stroke-linecap="round"/><path d="M269.44 214 Q400 150 530.56 214" fill="none" stroke="#7a5436" stroke-width="9" stroke-linecap="round"/>
<rect width="800" height="1000" filter="url(#grain)"/></svg>
