<svg xmlns="http://www.w3.org/2000/svg" viewBox="0 0 800 1000" width="800" height="1000" preserveAspectRatio="xMidYMid slice"><defs><linearGradient id="bg" x1="0" y1="0" x2="0" y2="1"><stop offset="0" stop-color="#d3d1d0"/><stop offset=".7" stop-color="#e6ddd3"/></linearGradient>
<radialGradient id="sun" cx="250" cy="720" r="320" gradientUnits="userSpaceOnUse"><stop offset="0" stop-color="#f8e9da" stop-opacity=".95"/><stop offset="1" stop-color="#f8e9da" stop-opacity="0"/></radialGradient><pattern id="tex" width="7" height="7" patternUnits="userSpaceOnUse"><rect width="7" height="2" fill="#ffffff"/><rect width="2" height="7" fill="#ffffff"/></pattern>
<linearGradient id="form" x1="0" y1="0" x2="1" y2="1"><stop offset="0" stop-color="#fff" stop-opacity=".12"/><stop offset=".5" stop-color="#fff" stop-opacity="0"/><stop offset="1" stop-color="#000" stop-opacity=".18"/></linearGradient>
<clipPath id="cut"><path d="M285 212 C255 224 242 252 238 292 L220 642 C232 650 258 652 270 646 L290 338Z"/><path d="M515 212 C545 224 558 252 562 292 L580 642 C568 650 542 652 530 646 L510 338Z"/><path d="M332 190 C310 198 292 206 282 214 C276 262 276 302 280 342 L274 724 L526 724 L520 342 C524 302 524 262 518 214 C508 206 490 198 468 190 C454 212 430 224 400 226 C370 224 346 212 332 190Z"/></clipPath>
<filter id="drop" x="-20%" y="-20%" width="140%" height="140%"><feGaussianBlur stdDeviation="14"/></filter>
<filter id="grain" x="0" y="0" width="100%" height="100%"><feTurbulence type="fractalNoise" baseFrequency=".9" numOctaves="2" stitchTiles="stitch"/><feColorMatrix values="0 0 0 0 .14  0 0 0 0 .11  0 0 0 0 .09  0 0 0 .07 0"/></filter></defs>
<rect width="800" height="1000" fill="url(#bg)"/><rect width="800" height="1000" fill="url(#sun)"/><rect y="780" width="800" height="220" fill="#b3bbbb"/><rect y="780" width="800" height="2" fill="#f4e6d8"/><path d="M0 860 H800 V1000 H0Z" fill="#9ea9ab" opacity=".7"/><g fill="#f4e6d8" opacity=".6"><rect x="200" y="800" width="120" height="2"/><rect x="170" y="824" width="170" height="2.5"/><rect x="140" y="856" width="220" height="3"/></g>
<g transform="translate(16 22)" opacity=".2" filter="url(#drop)"><path d="M285 212 C255 224 242 252 238 292 L220 642 C232 650 258 652 270 646 L290 338Z" fill="#231d18"/><path d="M515 212 C545 224 558 252 562 292 L580 642 C568 650 542 652 530 646 L510 338Z" fill="#231d18"/><path d="M332 190 C310 198 292 206 282 214 C276 262 276 302 280 342 L274 724 L526 724 L520 342 C524 302 524 262 518 214 C508 206 490 198 468 190 C454 212 430 224 400 226 C370 224 346 212 332 190Z" fill="#231d18"/></g>
<path d="M285 212 C255 224 242 252 238 292 L220 642 C232 650 258 652 270 646 L290 338Z" fill="#263447"/><path d="M515 212 C545 224 558 252 562 292 L580 642 C568 650 542 652 530 646 L510 338Z" fill="#263447"/><path d="M332 190 C310 198 292 206 282 214 C276 262 276 302 280 342 L274 724 L526 724 L520 342 C524 302 524 262 518 214 C508 206 490 198 468 190 C454 212 430 224 400 226 C370 224 346 212 332 190Z" fill="#34465e"/>
<g clip-path="url(#cut)"><rect width="800" height="1000" fill="url(#tex)" opacity="0.06"/></g>
<path d="M332 188 L400 232 L360 286 L316 214Z" fill="#46597a"/><path d="M468 188 L400 232 L440 286 L484 214Z" fill="#46597a"/>
<path d="M400 232 V724" stroke="#263447" stroke-width="3"/><circle cx="414" cy="300" r="6" fill="#d9ccb4"/><circle cx="414" cy="390" r="6" fill="#d9ccb4"/><circle cx="414" cy="480" r="6" fill="#d9ccb4"/><circle cx="414" cy="570" r="6" fill="#d9ccb4"/><circle cx="414" cy="660" r="6" fill="#d9ccb4"/>
<rect x="316" y="306" width="62" height="66" rx="3" fill="#263447" opacity=".5"/><rect x="321" y="311" width="52" height="56" rx="2" fill="none" stroke="#46597a" stroke-width="2" stroke-dasharray="5 5"/><rect x="296" y="540" width="84" height="96" rx="3" fill="#263447" opacity=".5"/><rect x="301" y="545" width="74" height="86" rx="2" fill="none" stroke="#46597a" stroke-width="2" stroke-dasharray="5 5"/><rect x="420" y="540" width="84" height="96" rx="3" fill="#263447" opacity=".5"/><rect x="425" y="545" width="74" height="86" rx="2" fill="none" stroke="#46597a" stroke-width="2" stroke-dasharray="5 5"/>
<path d="M220 628 L270 632 M580 628 L530 632" stroke="#263447" stroke-width="4"/>
<g clip-path="url(#cut)"><rect width="800" height="1000" fill="url(#form)"/></g>
<path d="M400 176 V150 C400 128 424 122 432 138" fill="none" stroke="#3b3029" stroke-width="4" stroke-linecap="round"/><path d="M272 214 Q400 150 528 214" fill="none" stroke="#7a5436" stroke-width="9" stroke-linecap="round"/>
<rect width="800" height="1000" filter="url(#grain)"/></svg>
